<svg width="28" height="28" viewBox="0 0 28 28" fill="none" xmlns="http://www.w3.org/2000/svg">
<g clip-path="url(#clip0_9_669)">
<path d="M28 14C28 6.26806 21.7319 0 14 0C6.26806 0 0 6.26795 0 14C0 20.9877 5.11963 26.7797 11.8125 27.8299V18.0469H8.25781V14H11.8125V10.9156C11.8125 7.40687 13.9027 5.46875 17.1005 5.46875C18.6322 5.46875 20.2344 5.74219 20.2344 5.74219V9.1875H18.4691C16.7298 9.1875 16.1875 10.2667 16.1875 11.3739V14H20.0703L19.4496 18.0469H16.1875V27.8299C22.8804 26.7797 28 20.9879 28 14Z" fill="#1877F2"/>
<path d="M19.4496 18.0469L20.0703 14H16.1875V11.3739C16.1875 10.2666 16.7299 9.1875 18.4691 9.1875H20.2344V5.74219C20.2344 5.74219 18.6322 5.46875 17.1005 5.46875C13.9027 5.46875 11.8125 7.40688 11.8125 10.9156V14H8.25781V18.0469H11.8125V27.8299C12.5361 27.9433 13.2675 28.0002 14 28C14.7325 28.0002 15.4639 27.9434 16.1875 27.8299V18.0469H19.4496Z" fill="white"/>
</g>
<defs>
<clipPath id="clip0_9_669">
<rect width="28" height="28" fill="white"/>
</clipPath>
</defs>
</svg>
