<svg width="28" height="28" viewBox="0 0 28 28" fill="none" xmlns="http://www.w3.org/2000/svg">
<path d="M25.4397 11.7151H24.5V11.6666H14V16.3333H20.5934C19.6315 19.0499 17.0467 21 14 21C10.1342 21 6.99998 17.8657 6.99998 14C6.99998 10.1342 10.1342 6.99998 14 6.99998C15.7844 6.99998 17.4078 7.67315 18.6439 8.77273L21.9438 5.47281C19.8601 3.5309 17.073 2.33331 14 2.33331C7.55706 2.33331 2.33331 7.55706 2.33331 14C2.33331 20.4429 7.55706 25.6666 14 25.6666C20.4429 25.6666 25.6666 20.4429 25.6666 14C25.6666 13.2177 25.5861 12.4541 25.4397 11.7151Z" fill="#FFC107"/>
<path d="M3.67853 8.56973L7.51161 11.3808C8.54878 8.81298 11.0606 6.99998 14 6.99998C15.7844 6.99998 17.4079 7.67315 18.6439 8.77273L21.9439 5.47281C19.8602 3.5309 17.073 2.33331 14 2.33331C9.51886 2.33331 5.63269 4.86323 3.67853 8.56973Z" fill="#FF3D00"/>
<path d="M14 25.6666C17.0135 25.6666 19.7517 24.5134 21.8219 22.638L18.2111 19.5825C17.0004 20.5032 15.521 21.0012 14 21C10.9655 21 8.38894 19.0651 7.41827 16.3648L3.61377 19.2961C5.5446 23.0743 9.46577 25.6666 14 25.6666Z" fill="#4CAF50"/>
<path d="M25.4398 11.7151H24.5V11.6667H14V16.3334H20.5934C20.1333 17.6263 19.3045 18.756 18.2093 19.5831L18.2111 19.5819L21.8219 22.6374C21.5664 22.8696 25.6667 19.8334 25.6667 14C25.6667 13.2178 25.5862 12.4542 25.4398 11.7151Z" fill="#1976D2"/>
</svg>
