<svg width="342" height="348" viewBox="0 0 342 348" fill="none" xmlns="http://www.w3.org/2000/svg">
<path d="M291.521 170.657C224.523 130.088 116.253 130.088 49.6949 170.657C-16.8631 211.226 -16.5129 277.002 50.4399 317.556C117.393 358.109 225.753 358.187 292.311 317.556C358.869 276.924 358.518 211.242 291.521 170.657Z" fill="#D3D3D3"/>
<path d="M59.6928 293.583L137.172 246.701C138.351 245.987 139.689 245.611 141.05 245.611C142.412 245.611 143.749 245.987 144.928 246.701L152.624 251.389C153.017 251.626 153.343 251.967 153.57 252.379C153.798 252.79 153.917 253.257 153.917 253.733C153.917 254.208 153.798 254.676 153.57 255.087C153.343 255.499 153.017 255.84 152.624 256.077L75.144 303.046C73.96 303.769 72.6142 304.15 71.244 304.15C69.8737 304.15 68.5279 303.769 67.3439 303.046L59.663 298.318C59.2607 298.082 58.9261 297.737 58.6942 297.319C58.4624 296.901 58.3416 296.425 58.3447 295.941C58.3477 295.458 58.4744 294.984 58.7115 294.569C58.9486 294.154 59.2875 293.814 59.6928 293.583Z" fill="#E0E0E0"/>
<path d="M286.522 293.583L209.042 246.701C207.865 245.987 206.528 245.611 205.168 245.611C203.808 245.611 202.472 245.987 201.294 246.701L193.598 251.389C193.205 251.626 192.879 251.967 192.652 252.379C192.425 252.79 192.305 253.257 192.305 253.733C192.305 254.208 192.425 254.676 192.652 255.087C192.879 255.499 193.205 255.84 193.598 256.077L271.078 303.046C272.262 303.769 273.608 304.15 274.978 304.15C276.348 304.15 277.694 303.769 278.878 303.046L286.559 298.318C286.959 298.08 287.291 297.733 287.521 297.315C287.751 296.897 287.87 296.422 287.866 295.939C287.862 295.457 287.736 294.984 287.499 294.57C287.263 294.155 286.926 293.815 286.522 293.583Z" fill="#E0E0E0"/>
<path d="M309.915 245.724C304.059 242.184 294.59 242.184 288.772 245.724C282.953 249.263 282.991 255.022 288.846 258.57C294.702 262.117 304.164 262.117 309.982 258.57C315.8 255.022 315.771 249.271 309.915 245.724Z" fill="#E0E0E0"/>
<path d="M54.1649 240.41C48.1006 236.738 38.3114 236.738 32.2918 240.41C26.2722 244.083 26.3318 250.029 32.3589 253.694C38.3859 257.358 48.2124 257.358 54.232 253.694C60.2515 250.029 60.2217 244.106 54.1649 240.41Z" fill="#E0E0E0"/>
<path d="M313.558 225.353L299.403 225.791L285.248 225.353C284.637 235.394 286.507 245.669 289.077 250.631C289.687 251.916 290.671 252.964 291.886 253.623C296.065 256.155 302.83 256.155 306.98 253.623C308.214 252.954 309.202 251.874 309.788 250.553C312.314 245.497 314.161 235.316 313.558 225.353Z" fill="white"/>
<path d="M309.371 219.235C314.929 222.595 314.959 228.049 309.438 231.417C303.918 234.785 294.94 234.777 289.383 231.417C283.825 228.057 283.803 222.595 289.323 219.235C294.844 215.875 303.813 215.867 309.371 219.235Z" fill="#EBEBEB"/>
<path d="M307.173 220.571C311.509 223.197 311.532 227.447 307.225 230.073C302.919 232.698 295.916 232.698 291.581 230.073C287.245 227.447 287.222 223.197 291.528 220.571C295.834 217.946 302.867 217.946 307.173 220.571Z" fill="#E0E0E0"/>
<g opacity="0.15">
<path d="M307.173 220.571C311.509 223.197 311.532 227.447 307.225 230.073C302.919 232.698 295.916 232.698 291.581 230.073C287.245 227.447 287.222 223.197 291.528 220.571C295.834 217.946 302.867 217.946 307.173 220.571Z" fill="black"/>
</g>
<path d="M322.692 161.867C290.739 172.806 290.448 195.255 297.652 211.226C299.47 214.453 304.968 216.188 309.751 196.333L301.377 197.466L311.152 192.262L313.692 184.3L305.542 184.933L315.89 180.37C317.792 174.061 320.063 167.881 322.692 161.867Z" fill="#FF7F50"/>
<path opacity="0.2" d="M322.692 161.867C290.739 172.806 290.448 195.255 297.652 211.226C299.47 214.453 304.968 216.188 309.751 196.333L301.377 197.466L311.152 192.262L313.692 184.3L305.542 184.933L315.89 180.37C317.792 174.061 320.063 167.881 322.692 161.867Z" fill="black"/>
<path opacity="0.2" d="M322.692 161.867C290.739 172.806 290.448 195.255 297.652 211.226C299.47 214.453 304.968 216.188 309.751 196.333L301.377 197.466L311.152 192.262L313.692 184.3L305.542 184.933L315.89 180.37C317.792 174.061 320.063 167.881 322.692 161.867Z" fill="white"/>
<path d="M313.655 167.469C296.803 180.885 295.283 196.263 300.044 212.32C298.397 198.185 296.535 183.886 313.655 167.469Z" fill="white"/>
<path d="M268.597 184.644C300.088 189.332 303.91 210.117 299.731 226.244C298.554 229.573 293.704 232.143 286.105 214.484L294.099 214.078L284.168 210.953L280.517 203.959L288.213 203.131L277.85 200.685C275.084 195.143 271.994 189.786 268.597 184.644Z" fill="#FF7F50"/>
<path opacity="0.2" d="M268.597 184.644C300.088 189.332 303.91 210.117 299.731 226.244C298.554 229.573 293.704 232.143 286.105 214.484L294.099 214.078L284.168 210.953L280.517 203.959L288.213 203.131L277.85 200.685C275.084 195.143 271.994 189.786 268.597 184.644Z" fill="white"/>
<path opacity="0.1" d="M268.597 184.644C300.088 189.332 303.91 210.117 299.731 226.244C298.554 229.573 293.704 232.143 286.105 214.484L294.099 214.078L284.168 210.953L280.517 203.959L288.213 203.131L277.85 200.685C275.084 195.143 271.994 189.786 268.597 184.644Z" fill="black"/>
<path d="M277.88 188.285C295.693 197.841 299.545 211.898 297.652 227.697C296.982 214.219 296.416 200.592 277.88 188.285Z" fill="white"/>
<path d="M331.922 192.442C303.039 192.942 297.377 211.265 299.418 226.291C300.126 229.417 304.223 232.315 312.955 217.29L305.78 215.977L315.063 214.313L319.078 208.452L312.232 206.803L321.835 205.819C324.931 201.146 328.3 196.678 331.922 192.442Z" fill="#FF7F50"/>
<path d="M323.131 194.637C306.056 201.162 301.079 213.39 301.102 227.822C303.143 215.774 305.102 203.553 323.131 194.637Z" fill="white"/>
<path opacity="0.2" d="M331.922 192.442C303.039 192.942 297.377 211.265 299.418 226.291C300.126 229.417 304.223 232.315 312.955 217.29L305.78 215.977L315.063 214.313L319.078 208.452L312.232 206.803L321.835 205.819C324.931 201.146 328.3 196.678 331.922 192.442Z" fill="white"/>
<path d="M57.9347 219.298L43.2657 219.743L28.5892 219.298C27.956 229.69 29.893 240.278 32.5601 245.45C33.1879 246.789 34.2055 247.884 35.4656 248.576C39.794 251.193 46.7895 251.193 51.1105 248.576C52.4 247.881 53.4306 246.753 54.0383 245.372C56.6533 240.199 58.5605 229.635 57.9347 219.298Z" fill="white"/>
<path d="M53.6062 212.992C59.3501 216.469 59.3799 222.118 53.6733 225.596C47.9666 229.073 38.669 229.08 32.9176 225.596C27.1663 222.111 27.1439 216.477 32.8506 212.992C38.5573 209.507 47.8548 209.515 53.6062 212.992Z" fill="#EBEBEB"/>
<path d="M51.3265 214.414C55.7965 217.133 55.8412 221.532 51.3861 224.252C46.931 226.971 39.6822 226.971 35.1973 224.252C30.7125 221.532 30.6827 217.133 35.1452 214.414C39.6077 211.695 46.8416 211.664 51.3265 214.414Z" fill="#E0E0E0"/>
<g opacity="0.15">
<path d="M51.3265 214.414C55.7965 217.133 55.8412 221.532 51.3861 224.252C46.931 226.971 39.6822 226.971 35.1973 224.252C30.7125 221.532 30.6827 217.133 35.1452 214.414C39.6077 211.695 46.8416 211.664 51.3265 214.414Z" fill="black"/>
</g>
<path d="M35.7784 187.8C33.3945 184.675 30.6231 181.901 28.4328 178.635C26.9428 176.408 25.6912 173.681 26.317 171.032C26.6686 169.818 27.336 168.732 28.244 167.894C29.1521 167.056 30.2649 166.5 31.4575 166.289C33.8662 165.917 36.3209 166.493 38.3487 167.907C40.3561 169.318 42.1196 171.078 43.5637 173.111C51.821 184.081 55.7252 197.969 54.463 211.882C54.314 213.445 54.0681 215.117 53.1071 216.344C52.5781 216.991 51.8847 217.466 51.1077 217.715C50.3308 217.964 49.5023 217.977 48.719 217.751C44.7184 216.5 45.2548 210.843 44.5992 207.507C43.6996 202.934 42.1527 198.527 40.01 194.434C38.7859 192.098 37.3701 189.879 35.7784 187.8Z" fill="#FF7F50"/>
<path opacity="0.2" d="M35.7784 187.8C33.3945 184.675 30.6231 181.901 28.4328 178.635C26.9428 176.408 25.6912 173.681 26.317 171.032C26.6686 169.818 27.336 168.732 28.244 167.894C29.1521 167.056 30.2649 166.5 31.4575 166.289C33.8662 165.917 36.3209 166.493 38.3487 167.907C40.3561 169.318 42.1196 171.078 43.5637 173.111C51.821 184.081 55.7252 197.969 54.463 211.882C54.314 213.445 54.0681 215.117 53.1071 216.344C52.5781 216.991 51.8847 217.466 51.1077 217.715C50.3308 217.964 49.5023 217.977 48.719 217.751C44.7184 216.5 45.2548 210.843 44.5992 207.507C43.6996 202.934 42.1527 198.527 40.01 194.434C38.7859 192.098 37.3701 189.879 35.7784 187.8Z" fill="white"/>
<path d="M48.9649 213.531C48.8889 213.513 48.8204 213.47 48.7695 213.408C48.7185 213.346 48.6878 213.269 48.6818 213.187C48.4062 206.452 46.3202 183.495 31.2265 170.454C31.1906 170.424 31.1608 170.386 31.139 170.344C31.1172 170.301 31.1038 170.254 31.0996 170.206C31.0954 170.158 31.1006 170.109 31.1147 170.063C31.1288 170.017 31.1517 169.975 31.1818 169.938C31.2103 169.898 31.2463 169.864 31.2876 169.839C31.329 169.814 31.3748 169.798 31.4222 169.792C31.4697 169.786 31.5178 169.791 31.5636 169.805C31.6094 169.819 31.6518 169.843 31.6884 169.876C47.0056 183.104 49.1139 206.335 49.397 213.14C49.399 213.189 49.3919 213.237 49.3761 213.282C49.3604 213.328 49.3362 213.369 49.3051 213.405C49.2739 213.44 49.2364 213.469 49.1947 213.489C49.1529 213.51 49.1077 213.521 49.0618 213.523L48.9649 213.531Z" fill="#F0F0F0"/>
<path d="M51.1701 214.258C50.7156 216.899 48.5551 220.165 46.2754 221.384C43.9555 222.535 41.3761 222.987 38.8255 222.689C36.255 222.38 33.7289 221.751 31.301 220.814C30.0867 220.384 28.7457 219.806 28.6116 218.235C28.5911 217.823 28.6572 217.411 28.8052 217.029C28.9533 216.647 29.1797 216.304 29.4683 216.024C29.7034 215.774 29.9521 215.539 30.2133 215.32C30.3603 215.234 30.4749 215.098 30.5384 214.934C30.602 214.77 30.6107 214.588 30.5631 214.419C30.5155 214.249 30.4145 214.101 30.2766 214C30.1386 213.898 29.9718 213.849 29.8036 213.859C29.0836 213.815 28.367 213.724 27.658 213.586C26.014 213.298 24.4718 212.56 23.188 211.445C22.2483 210.569 21.5335 209.459 21.1095 208.218C20.7444 207.155 20.6401 205.827 21.4075 205.038C21.8848 204.621 22.4622 204.351 23.0762 204.256C23.6126 204.139 24.149 204.03 24.6854 203.944C24.8289 203.904 24.9577 203.82 25.0553 203.702C25.153 203.585 25.215 203.44 25.2334 203.285C25.2518 203.131 25.2258 202.974 25.1587 202.835C25.0916 202.696 24.9865 202.582 24.8568 202.506L22.5771 201.514C21.9224 201.291 21.3292 200.905 20.8487 200.388C20.1559 199.505 20.2006 198.224 20.4166 197.099C20.6923 195.606 21.1616 194.161 21.5192 192.684C21.9177 191.211 21.9689 189.658 21.6682 188.16C25.9369 187.667 30.255 187.971 34.4225 189.058C35.6732 189.32 36.8581 189.852 37.9017 190.621C39.3172 191.817 39.6897 193.598 39.5332 195.536C39.5306 195.615 39.553 195.692 39.5971 195.755C39.6411 195.819 39.7042 195.865 39.7762 195.887C39.8482 195.908 39.925 195.904 39.9944 195.874C40.0638 195.845 40.1217 195.792 40.159 195.724L41.649 192.911C41.8557 192.505 42.2025 192.198 42.6182 192.053C43.0339 191.908 43.4869 191.935 43.884 192.129C45.1612 192.795 46.2946 193.728 47.2141 194.872C47.7246 195.477 48.1136 196.184 48.358 196.951C48.6025 197.717 48.6974 198.528 48.6371 199.334C48.4602 201.546 48.1063 203.739 47.5792 205.889C47.5464 206.011 47.551 206.14 47.5924 206.259C47.6337 206.378 47.7096 206.48 47.8094 206.551C47.9092 206.622 48.0278 206.658 48.1482 206.654C48.2687 206.65 48.385 206.607 48.4806 206.53L48.5477 206.475C48.9404 206.165 49.4285 206.017 49.9185 206.061C51.2073 206.225 51.5351 207.624 51.6245 208.757C51.6869 210.603 51.5343 212.45 51.1701 214.258Z" fill="#FF7F50"/>
<path opacity="0.2" d="M51.1701 214.258C50.7156 216.899 48.5551 220.165 46.2754 221.384C43.9555 222.535 41.3761 222.987 38.8255 222.689C36.255 222.38 33.7289 221.751 31.301 220.814C30.0867 220.384 28.7457 219.806 28.6116 218.235C28.5911 217.823 28.6572 217.411 28.8052 217.029C28.9533 216.647 29.1797 216.304 29.4683 216.024C29.7034 215.774 29.9521 215.539 30.2133 215.32C30.3603 215.234 30.4749 215.098 30.5384 214.934C30.602 214.77 30.6107 214.588 30.5631 214.419C30.5155 214.249 30.4145 214.101 30.2766 214C30.1386 213.898 29.9718 213.849 29.8036 213.859C29.0836 213.815 28.367 213.724 27.658 213.586C26.014 213.298 24.4718 212.56 23.188 211.445C22.2483 210.569 21.5335 209.459 21.1095 208.218C20.7444 207.155 20.6401 205.827 21.4075 205.038C21.8848 204.621 22.4622 204.351 23.0762 204.256C23.6126 204.139 24.149 204.03 24.6854 203.944C24.8289 203.904 24.9577 203.82 25.0553 203.702C25.153 203.585 25.215 203.44 25.2334 203.285C25.2518 203.131 25.2258 202.974 25.1587 202.835C25.0916 202.696 24.9865 202.582 24.8568 202.506L22.5771 201.514C21.9224 201.291 21.3292 200.905 20.8487 200.388C20.1559 199.505 20.2006 198.224 20.4166 197.099C20.6923 195.606 21.1616 194.161 21.5192 192.684C21.9177 191.211 21.9689 189.658 21.6682 188.16C25.9369 187.667 30.255 187.971 34.4225 189.058C35.6732 189.32 36.8581 189.852 37.9017 190.621C39.3172 191.817 39.6897 193.598 39.5332 195.536C39.5306 195.615 39.553 195.692 39.5971 195.755C39.6411 195.819 39.7042 195.865 39.7762 195.887C39.8482 195.908 39.925 195.904 39.9944 195.874C40.0638 195.845 40.1217 195.792 40.159 195.724L41.649 192.911C41.8557 192.505 42.2025 192.198 42.6182 192.053C43.0339 191.908 43.4869 191.935 43.884 192.129C45.1612 192.795 46.2946 193.728 47.2141 194.872C47.7246 195.477 48.1136 196.184 48.358 196.951C48.6025 197.717 48.6974 198.528 48.6371 199.334C48.4602 201.546 48.1063 203.739 47.5792 205.889C47.5464 206.011 47.551 206.14 47.5924 206.259C47.6337 206.378 47.7096 206.48 47.8094 206.551C47.9092 206.622 48.0278 206.658 48.1482 206.654C48.2687 206.65 48.385 206.607 48.4806 206.53L48.5477 206.475C48.9404 206.165 49.4285 206.017 49.9185 206.061C51.2073 206.225 51.5351 207.624 51.6245 208.757C51.6869 210.603 51.5343 212.45 51.1701 214.258Z" fill="black"/>
<path opacity="0.2" d="M51.1701 214.258C50.7156 216.899 48.5551 220.165 46.2754 221.384C43.9555 222.535 41.3761 222.987 38.8255 222.689C36.255 222.38 33.7289 221.751 31.301 220.814C30.0867 220.384 28.7457 219.806 28.6116 218.235C28.5911 217.823 28.6572 217.411 28.8052 217.029C28.9533 216.647 29.1797 216.304 29.4683 216.024C29.7034 215.774 29.9521 215.539 30.2133 215.32C30.3603 215.234 30.4749 215.098 30.5384 214.934C30.602 214.77 30.6107 214.588 30.5631 214.419C30.5155 214.249 30.4145 214.101 30.2766 214C30.1386 213.898 29.9718 213.849 29.8036 213.859C29.0836 213.815 28.367 213.724 27.658 213.586C26.014 213.298 24.4718 212.56 23.188 211.445C22.2483 210.569 21.5335 209.459 21.1095 208.218C20.7444 207.155 20.6401 205.827 21.4075 205.038C21.8848 204.621 22.4622 204.351 23.0762 204.256C23.6126 204.139 24.149 204.03 24.6854 203.944C24.8289 203.904 24.9577 203.82 25.0553 203.702C25.153 203.585 25.215 203.44 25.2334 203.285C25.2518 203.131 25.2258 202.974 25.1587 202.835C25.0916 202.696 24.9865 202.582 24.8568 202.506L22.5771 201.514C21.9224 201.291 21.3292 200.905 20.8487 200.388C20.1559 199.505 20.2006 198.224 20.4166 197.099C20.6923 195.606 21.1616 194.161 21.5192 192.684C21.9177 191.211 21.9689 189.658 21.6682 188.16C25.9369 187.667 30.255 187.971 34.4225 189.058C35.6732 189.32 36.8581 189.852 37.9017 190.621C39.3172 191.817 39.6897 193.598 39.5332 195.536C39.5306 195.615 39.553 195.692 39.5971 195.755C39.6411 195.819 39.7042 195.865 39.7762 195.887C39.8482 195.908 39.925 195.904 39.9944 195.874C40.0638 195.845 40.1217 195.792 40.159 195.724L41.649 192.911C41.8557 192.505 42.2025 192.198 42.6182 192.053C43.0339 191.908 43.4869 191.935 43.884 192.129C45.1612 192.795 46.2946 193.728 47.2141 194.872C47.7246 195.477 48.1136 196.184 48.358 196.951C48.6025 197.717 48.6974 198.528 48.6371 199.334C48.4602 201.546 48.1063 203.739 47.5792 205.889C47.5464 206.011 47.551 206.14 47.5924 206.259C47.6337 206.378 47.7096 206.48 47.8094 206.551C47.9092 206.622 48.0278 206.658 48.1482 206.654C48.2687 206.65 48.385 206.607 48.4806 206.53L48.5477 206.475C48.9404 206.165 49.4285 206.017 49.9185 206.061C51.2073 206.225 51.5351 207.624 51.6245 208.757C51.6869 210.603 51.5343 212.45 51.1701 214.258Z" fill="white"/>
<path d="M44.4129 221.017C43.6065 217.43 42.4558 213.937 40.9785 210.593C40.9802 210.541 40.9704 210.489 40.9497 210.442C40.929 210.394 40.8981 210.352 40.8593 210.32C40.7848 210.14 40.7028 209.96 40.6209 209.773C41.0354 205.608 42.1876 201.562 44.0181 197.841C44.0642 197.757 44.0767 197.657 44.053 197.564C44.0293 197.47 43.9712 197.39 43.8914 197.341C43.852 197.316 43.8082 197.3 43.7626 197.293C43.7171 197.286 43.6706 197.289 43.6261 197.301C43.5816 197.314 43.54 197.335 43.5036 197.365C43.4673 197.395 43.437 197.432 43.4146 197.474C41.6995 200.944 40.5655 204.697 40.0621 208.569C37.1641 202.459 32.5302 195.286 25.3783 190.105C25.3029 190.05 25.2099 190.028 25.1194 190.044C25.0288 190.061 24.9478 190.113 24.894 190.191C24.8418 190.273 24.8219 190.372 24.8386 190.468C24.8553 190.565 24.9073 190.65 24.9834 190.707C32.3514 196.083 37.0077 203.545 39.8387 209.741C36.0336 207.933 31.8069 207.333 27.6803 208.015C27.5895 208.033 27.5096 208.089 27.4579 208.17C27.4063 208.25 27.3871 208.349 27.4047 208.444C27.419 208.515 27.4527 208.58 27.5016 208.632C27.5505 208.683 27.6126 208.718 27.6803 208.733H27.8144C27.8815 208.733 34.5194 207.452 40.3229 210.835C41.788 214.146 42.9287 217.605 43.7275 221.157C43.741 221.229 43.7744 221.294 43.8235 221.346C43.8725 221.397 43.9351 221.432 44.0032 221.446H44.1373C44.228 221.428 44.308 221.372 44.3596 221.291C44.4113 221.211 44.4305 221.112 44.4129 221.017Z" fill="#F0F0F0"/>
<path d="M273.745 20.5469C273.229 19.6039 272.48 18.824 271.577 18.2888L242.09 0.512472C239.505 -1.05028 233.389 1.06725 233.389 5.41951V33.4709C233.389 34.5371 233.658 35.5843 234.168 36.5064C234.678 37.4285 235.412 38.1928 236.294 38.7217L259.061 52.3646L255.128 50.0204L257.013 55.6385C257.041 55.7188 257.098 55.7846 257.172 55.8224C257.245 55.8602 257.329 55.8671 257.408 55.8417C257.743 55.662 259.225 54.8259 260.067 54.2789H260.127C260.127 54.2789 260.186 54.2789 260.201 54.2086L260.663 53.4272L265.796 56.498C266.646 57.0551 267.622 57.3664 268.624 57.4004C269.626 57.4344 270.619 57.1899 271.501 56.6916C272.384 56.1934 273.126 55.4591 273.651 54.5633C274.175 53.6676 274.465 52.6421 274.49 51.591V23.5084C274.489 22.4704 274.233 21.4503 273.745 20.5469Z" fill="#FF7F50"/>
<path opacity="0.2" d="M260.201 54.1149C260.201 54.1149 260.157 54.1617 260.127 54.1852H260.067C259.225 54.7712 257.743 55.6073 257.407 55.7479C257.485 55.7282 257.551 55.6778 257.594 55.6073L259.419 52.4818L259.061 52.263L260.663 53.2241L260.201 54.1149Z" fill="white"/>
<path opacity="0.4" d="M268.016 23.9616C267.647 23.1783 267.121 22.488 266.474 21.9378C266.251 21.7551 266.017 21.5881 265.774 21.4377L236.265 3.67704C235.973 3.49967 235.642 3.40608 235.305 3.40573C234.968 3.40538 234.637 3.49828 234.346 3.67505C234.054 3.85182 233.812 4.10619 233.644 4.41248C233.476 4.71878 233.388 5.06614 233.389 5.4195C233.389 1.06724 239.505 -1.04247 242.09 0.512466L271.577 18.2888C272.475 18.8337 273.216 19.6218 273.723 20.5704L268.016 23.9616Z" fill="white"/>
<path opacity="0.2" d="M268.664 54.654V26.6729C268.665 26.4325 268.65 26.1924 268.62 25.9541C268.525 25.2594 268.321 24.586 268.016 23.9615L273.745 20.5469C274.233 21.4503 274.489 22.4704 274.49 23.5084V51.4894C274.465 52.5405 274.175 53.566 273.651 54.4618C273.126 55.3575 272.384 56.0918 271.501 56.59C270.619 57.0883 269.626 57.3328 268.624 57.2988C267.622 57.2648 266.646 56.9535 265.796 56.3965C266.087 56.5719 266.417 56.6639 266.753 56.6632C267.089 56.6626 267.419 56.5693 267.709 56.3928C268 56.2163 268.241 55.9627 268.409 55.6575C268.576 55.3523 268.665 55.0062 268.664 54.654Z" fill="white"/>
<path d="M245.853 19.1248C244.675 18.4138 243.498 18.2419 242.604 18.781C240.794 19.8515 240.787 23.3599 242.604 26.5948L243.647 28.5013L250.121 40.222L256.648 36.3151L257.698 35.6744C259.501 34.6039 259.508 31.1033 257.698 27.8606C256.917 26.4141 255.796 25.201 254.442 24.3366C253.265 23.6256 252.088 23.4537 251.194 23.985L250.136 24.6101L249.093 22.7114C248.32 21.2476 247.205 20.0136 245.853 19.1248Z" fill="white"/>
<path d="M68.2603 20.5469C68.7768 19.6039 69.5256 18.824 70.4282 18.2888L99.9376 0.535909C102.523 -1.02684 108.639 1.09069 108.639 5.44295V33.4943C108.639 34.5605 108.37 35.6077 107.86 36.5298C107.35 37.452 106.616 38.2162 105.734 38.7452L82.9442 52.3646L86.8778 50.0204L84.9929 55.6385C84.9643 55.7188 84.9074 55.7846 84.834 55.8224C84.7606 55.8602 84.6762 55.8671 84.5981 55.8417C84.2628 55.662 82.7803 54.8259 81.9384 54.2789H81.8788C81.8788 54.2789 81.8192 54.2789 81.8043 54.2086L81.3424 53.4272L76.2094 56.498C75.3592 57.0551 74.3836 57.3664 73.3816 57.4004C72.3797 57.4344 71.387 57.1899 70.5042 56.6916C69.6214 56.1934 68.8799 55.4591 68.355 54.5633C67.8301 53.6676 67.5404 52.6421 67.5153 51.591V23.5084C67.5162 22.4704 67.7729 21.4503 68.2603 20.5469Z" fill="#FF7F50"/>
<path opacity="0.2" d="M81.8043 54.1148C81.8043 54.1148 81.849 54.1617 81.8788 54.1852H81.9384C82.7803 54.7712 84.2628 55.6073 84.5981 55.7479C84.5209 55.7282 84.4541 55.6777 84.4118 55.6073L82.5866 52.4818L82.9442 52.263L81.3424 53.2241L81.8043 54.1148Z" fill="white"/>
<path opacity="0.4" d="M73.9893 23.9616C74.3584 23.1783 74.8844 22.488 75.5315 21.9378C75.7542 21.7551 75.9881 21.5881 76.2318 21.4377L105.741 3.67704C106.032 3.49967 106.363 3.40608 106.7 3.40573C107.037 3.40538 107.368 3.49828 107.66 3.67505C107.952 3.85182 108.194 4.10619 108.362 4.41248C108.53 4.71878 108.618 5.06614 108.617 5.4195C108.617 1.06724 102.5 -1.04247 99.9152 0.512466L70.4282 18.2888C69.5309 18.8337 68.7898 19.6218 68.2827 20.5704L73.9893 23.9616Z" fill="white"/>
<path opacity="0.2" d="M73.3412 54.654V26.6729C73.341 26.4325 73.3559 26.1924 73.3859 25.9541C73.4802 25.2594 73.6841 24.586 73.9893 23.9615L68.2603 20.5469C67.7729 21.4503 67.5162 22.4704 67.5153 23.5084V51.4894C67.5404 52.5405 67.8301 53.566 68.355 54.4618C68.8799 55.3575 69.6214 56.0918 70.5042 56.59C71.387 57.0883 72.3797 57.3328 73.3816 57.2988C74.3836 57.2648 75.3592 56.9535 76.2094 56.3965C75.9182 56.5719 75.5881 56.6639 75.2523 56.6632C74.9165 56.6626 74.5868 56.5693 74.2962 56.3928C74.0056 56.2163 73.7644 55.9627 73.5967 55.6575C73.4291 55.3523 73.341 55.0062 73.3412 54.654Z" fill="white"/>
<path d="M96.153 19.1248C97.3301 18.4138 98.5072 18.2419 99.4012 18.781C101.212 19.8515 101.219 23.3599 99.4012 26.5948L98.3582 28.5013L91.8842 40.222L85.358 36.3151L84.3075 35.6744C82.5046 34.6039 82.4972 31.1033 84.3075 27.8606C85.0886 26.4141 86.2093 25.201 87.5632 24.3366C88.7403 23.6256 89.9174 23.4537 90.8114 23.985L91.8693 24.6101L92.9122 22.7114C93.6858 21.2476 94.8009 20.0136 96.153 19.1248Z" fill="white"/>
<path d="M198.054 47.5357C198.62 45.4572 202.65 41.5034 206.658 41.5816C207.043 41.5955 207.423 41.6746 207.783 41.816L285.613 88.261C286.75 88.9486 287.696 89.9365 288.356 91.1264C289.016 92.3163 289.367 93.6667 289.375 95.0433V271.634C289.375 276.135 284.429 280.425 279.787 278.362C279.685 278.327 279.586 278.285 279.489 278.237L201.615 231.675C200.48 230.988 199.538 229.999 198.884 228.808C198.23 227.617 197.887 226.267 197.89 224.892V48.3874C197.88 48.0939 197.936 47.8023 198.054 47.5357Z" fill="#FF7F50"/>
<path d="M278.513 113.703C278.512 113.013 278.337 112.336 278.006 111.741C277.675 111.145 277.2 110.652 276.628 110.311L204.364 67.1873C204.081 67.0176 203.76 66.9289 203.434 66.93C203.107 66.9312 202.787 67.0222 202.505 67.1938C202.223 67.3655 201.989 67.6119 201.826 67.9083C201.663 68.2047 201.578 68.5408 201.577 68.8828V211.289C201.577 211.979 201.751 212.658 202.082 213.255C202.414 213.852 202.89 214.346 203.462 214.688L275.727 257.882C276.011 258.05 276.332 258.136 276.658 258.134C276.984 258.131 277.303 258.039 277.585 257.867C277.867 257.695 278.1 257.448 278.263 257.152C278.426 256.856 278.512 256.52 278.513 256.179V113.703Z" fill="#BA68C8"/>
<path d="M278.513 113.703C278.512 113.013 278.337 112.336 278.006 111.741C277.675 111.145 277.2 110.652 276.628 110.311L204.364 67.1873C204.081 67.0176 203.76 66.9289 203.434 66.93C203.107 66.9312 202.787 67.0222 202.505 67.1938C202.223 67.3655 201.989 67.6119 201.826 67.9083C201.663 68.2047 201.578 68.5408 201.577 68.8828V211.289C201.577 211.979 201.751 212.658 202.082 213.255C202.414 213.852 202.89 214.346 203.462 214.688L275.727 257.882C276.011 258.05 276.332 258.136 276.658 258.134C276.984 258.131 277.303 258.039 277.585 257.867C277.867 257.695 278.1 257.448 278.263 257.152C278.426 256.856 278.512 256.52 278.513 256.179V113.703Z" fill="#455A64"/>
<path opacity="0.3" d="M289.368 95.0355V271.626C289.368 276.127 284.421 280.417 279.78 278.354C280.06 278.459 280.359 278.492 280.654 278.451C280.948 278.409 281.229 278.294 281.472 278.114C281.715 277.935 281.914 277.697 282.051 277.421C282.188 277.144 282.26 276.837 282.261 276.526V99.9347C282.257 98.3993 281.821 96.8991 281.009 95.6215L288.63 91.6287C289.116 92.692 289.369 93.8563 289.368 95.0355Z" fill="black"/>
<path opacity="0.1" d="M206.651 41.5738C207.035 41.5877 207.415 41.6668 207.776 41.8082L285.606 88.2532C286.897 89.0351 287.935 90.2055 288.586 91.6131L280.979 95.645C280.338 94.6248 279.479 93.7765 278.469 93.168L200.639 46.684C200.417 46.554 200.173 46.4729 199.921 46.4455C199.668 46.4182 199.413 46.4452 199.171 46.525C198.929 46.6047 198.705 46.7355 198.513 46.9093C198.321 47.0831 198.164 47.2963 198.054 47.5357C198.612 45.4494 202.643 41.4956 206.651 41.5738Z" fill="white"/>
<path d="M230.453 75.8449C229.902 75.5167 229.455 75.7746 229.448 76.431C229.47 76.7922 229.572 77.1432 229.745 77.4564C229.918 77.7695 230.158 78.0364 230.446 78.2359L245.718 87.4874C246.262 87.8156 246.702 87.5343 246.709 86.8779C246.691 86.5208 246.592 86.1733 246.421 85.8638C246.25 85.5542 246.012 85.2913 245.726 85.0964L230.453 75.8449Z" fill="#263238"/>
<path d="M249.645 87.4718C249.101 87.1358 248.654 87.4014 248.654 88.0578C248.674 88.4177 248.774 88.7678 248.944 89.0809C249.115 89.3939 249.352 89.6615 249.637 89.8628C249.734 89.9472 249.853 89.9985 249.978 90.0101C250.104 90.0216 250.229 89.9928 250.339 89.9274C250.448 89.862 250.536 89.7631 250.59 89.6441C250.644 89.5251 250.663 89.3914 250.643 89.2611C250.622 88.9017 250.521 88.5524 250.347 88.2416C250.174 87.9308 249.933 87.6671 249.645 87.4718Z" fill="#263238"/>
<path d="M239.87 74.501C238.775 73.8368 237.896 74.3681 237.896 75.6808C237.929 76.4006 238.124 77.102 238.465 77.7279C238.805 78.3538 239.282 78.8866 239.855 79.283C240.951 79.9393 241.852 79.4002 241.859 78.0875C241.82 77.3678 241.619 76.668 241.274 76.0448C240.928 75.4217 240.447 74.8928 239.87 74.501Z" fill="#263238"/>
<path d="M239.863 240.739C237.628 239.387 235.847 240.465 235.84 243.145C235.91 244.61 236.308 246.037 237.003 247.309C237.699 248.581 238.671 249.663 239.84 250.467C242.075 251.819 243.908 250.717 243.916 248.029C243.836 246.565 243.427 245.141 242.722 243.874C242.018 242.607 241.038 241.533 239.863 240.739Z" fill="#263238"/>
<path d="M255.187 220.267C262.839 232.815 260.224 248.56 260.224 248.56L207.165 216.821L255.187 220.267Z" fill="#37474F"/>
<path d="M218.25 159.491L208.394 158.241L196.906 177.26L212.715 179.377L218.25 159.491Z" fill="#FFA8A7"/>
<path opacity="0.2" d="M218.25 159.491L208.394 158.241L196.906 177.26L212.715 179.377L218.25 159.491Z" fill="black"/>
<path d="M255.187 220.267C253.638 216.641 250.315 211.281 248.907 206.014L208.916 206.311C208.23 209.843 207.644 213.346 207.157 216.821L207.21 216.883L224.948 227.486C237.151 229.081 250.092 223.22 255.187 220.267Z" fill="#FFA8A7"/>
<path opacity="0.2" d="M230.915 220.196C234.395 220.415 238.015 218.204 239.163 214.727C243.097 213.859 246.894 212.412 250.442 210.429C249.817 208.994 249.291 207.513 248.87 205.999L208.878 206.296C208.707 207.194 208.558 208.085 208.394 208.983C212.4 212.091 217.163 213.944 222.132 214.328C223.055 215.96 224.33 217.342 225.856 218.361C227.382 219.381 229.115 220.009 230.915 220.196Z" fill="black"/>
<path d="M211.151 146.106C211.06 144.957 211.181 143.8 211.508 142.699C211.791 141.73 214.846 136.214 214.533 135.815C212.511 133.278 211.385 130.088 211.345 126.781C211.304 123.475 212.351 120.255 214.309 117.664C213.404 117.201 212.666 116.442 212.209 115.5C211.752 114.558 211.599 113.486 211.775 112.445C211.951 111.405 212.446 110.453 213.184 109.734C213.923 109.014 214.864 108.567 215.867 108.459C217.558 108.295 219.167 109.116 220.784 109.632C223.575 110.411 226.476 110.66 229.351 110.366C232.219 110.186 235.087 109.788 237.971 109.819C240.861 109.742 243.725 110.424 246.3 111.804C247.579 112.504 248.688 113.501 249.543 114.72C250.398 115.939 250.976 117.347 251.232 118.836C255.545 118.336 260.171 122.391 260.618 126.923C261.043 131.315 258.264 135.44 258.302 139.855C258.302 142.848 259.635 145.676 261.282 148.091C262.928 150.505 265.007 152.631 266.75 154.975C271.585 161.476 274.14 169.524 273.984 177.768C273.879 182.362 272.844 187.105 270.102 190.699C264.723 197.732 251.731 198.513 243.871 197.521C235.804 196.476 228.195 193.018 221.953 187.558C217.669 183.792 213.907 178.424 214.503 172.595C214.794 169.86 215.993 167.344 216.932 164.781C217.871 162.218 218.422 159.265 217.386 156.733C216.351 154.201 213.751 152.443 212.305 150.013C211.626 148.827 211.23 147.487 211.151 146.106Z" fill="#263238"/>
<path d="M220.649 169.219C221.767 170.36 223.406 170.696 224.948 170.829C228.749 171.161 232.571 170.567 236.116 169.092C239.661 167.617 242.833 165.302 245.383 162.328L241.055 161.546L242.217 146.833L226.572 151.654L225.902 160.155L222.02 159.819C221.135 160.779 220.414 161.892 219.889 163.109C219.077 165.117 219.159 167.696 220.649 169.219Z" fill="#FFA8A7"/>
<path opacity="0.2" d="M241.122 147.216C238.194 152.826 232.927 157.374 226.103 157.639L226.572 151.693L241.122 147.216Z" fill="black"/>
<path d="M240.414 135.276C240.109 136.488 239.953 137.735 239.952 138.988C240.003 139.939 240.349 140.847 240.936 141.574C241.218 141.924 241.579 142.194 241.987 142.36C242.394 142.527 242.834 142.584 243.267 142.528C243.142 141.285 243.476 140.039 244.201 139.047C244.926 138.055 245.986 137.393 247.163 137.198C248.34 137.002 249.543 137.288 250.525 137.996C251.507 138.705 252.192 139.781 252.438 141.004C252.569 141.887 252.515 142.789 252.278 143.648C252.041 144.506 251.628 145.3 251.068 145.973C249.934 147.313 248.518 148.356 246.933 149.021C246.037 149.246 245.094 149.135 244.267 148.707C243.441 148.279 242.784 147.56 242.411 146.677C237.434 152.271 229.224 156.053 221.916 154.795C219.908 154.511 218.022 153.624 216.485 152.24C213.877 149.74 213.937 146.317 213.855 142.918C213.671 138.614 214.042 134.304 214.958 130.104C216.321 124.314 219.264 118.766 223.898 115.328C225.432 128.306 236.22 133.932 240.414 135.276Z" fill="#FFA8A7"/>
<path d="M225.201 132.495L219.651 138.574L224.203 140.668L225.201 132.495Z" fill="#F28F8F"/>
<path d="M228.248 144.215L224.225 145.176C224.439 145.683 224.806 146.103 225.269 146.371C225.731 146.639 226.265 146.741 226.788 146.661C227.772 146.434 228.3 145.262 228.248 144.215Z" fill="#F28F8F"/>
<path opacity="0.3" d="M228.248 144.215L224.225 145.176C224.439 145.683 224.806 146.103 225.269 146.371C225.731 146.639 226.265 146.741 226.788 146.661C227.772 146.434 228.3 145.262 228.248 144.215Z" fill="black"/>
<path d="M225.507 146.481C225.908 146.672 226.353 146.735 226.788 146.661C227.163 146.547 227.496 146.319 227.747 146.006C227.998 145.693 228.154 145.309 228.196 144.903C227.679 144.771 227.134 144.832 226.654 145.075C226.11 145.367 225.698 145.873 225.507 146.481Z" fill="#F28F8F"/>
<path d="M232.033 134.456C231.998 134.746 231.882 135.019 231.699 135.24C231.516 135.46 231.275 135.619 231.006 135.696C230.737 135.773 230.453 135.765 230.188 135.672C229.924 135.579 229.692 135.406 229.522 135.174C229.351 134.943 229.25 134.664 229.231 134.372C229.212 134.08 229.276 133.789 229.415 133.536C229.554 133.282 229.761 133.078 230.011 132.948C230.261 132.818 230.542 132.769 230.819 132.807C231.002 132.83 231.179 132.891 231.34 132.987C231.501 133.083 231.642 133.211 231.755 133.365C231.868 133.518 231.951 133.694 231.999 133.881C232.046 134.068 232.058 134.264 232.033 134.456Z" fill="#263238"/>
<path d="M220.404 132.409C220.369 132.699 220.253 132.972 220.07 133.192C219.887 133.413 219.646 133.572 219.377 133.649C219.108 133.726 218.823 133.717 218.559 133.625C218.295 133.532 218.063 133.359 217.892 133.127C217.722 132.896 217.621 132.617 217.602 132.325C217.583 132.033 217.647 131.742 217.786 131.489C217.925 131.235 218.132 131.03 218.382 130.901C218.632 130.771 218.913 130.722 219.189 130.76C219.373 130.783 219.55 130.844 219.711 130.94C219.872 131.036 220.013 131.164 220.126 131.317C220.239 131.471 220.322 131.646 220.369 131.834C220.417 132.021 220.429 132.217 220.404 132.409Z" fill="#263238"/>
<path d="M219.755 126.408L216.395 128.236C216.312 127.817 216.352 127.38 216.51 126.985C216.668 126.59 216.938 126.255 217.282 126.025C217.687 125.84 218.134 125.777 218.571 125.845C219.008 125.913 219.419 126.108 219.755 126.408Z" fill="#263238"/>
<path d="M231.705 127.838C232.639 128.728 233.575 129.614 234.514 130.494C234.692 130.115 234.757 129.689 234.7 129.27C234.643 128.852 234.466 128.461 234.193 128.15C233.848 127.86 233.431 127.677 232.992 127.622C232.552 127.567 232.106 127.641 231.705 127.838Z" fill="#263238"/>
<path d="M250.717 208.819C248.646 203.553 251.604 196.466 256.081 189.519C257.445 187.41 257.944 178.479 258.13 171.915C258.19 169.898 257.551 167.927 256.332 166.366C255.113 164.804 253.397 163.758 251.5 163.422L245.376 162.328C242.826 165.302 239.654 167.617 236.109 169.092C232.564 170.567 228.741 171.161 224.941 170.829C222.646 170.634 220.158 169.985 219.472 166.922C219.286 166.087 219.286 165.218 219.472 164.383C219.915 162.644 220.789 161.059 222.005 159.788L218.236 159.46C213.378 163.289 203.47 179.627 202.211 188.769C201.577 193.356 204.796 195.919 207.023 197.552C207.191 200.222 207.167 202.902 206.949 205.569C210.219 207.913 214.116 209.218 218.012 210.093C230.684 212.961 238.514 213.312 250.717 208.819Z" fill="#FF7F50"/>
<path opacity="0.2" d="M250.717 208.819C248.646 203.553 251.604 196.466 256.081 189.519C257.445 187.41 257.944 178.479 258.13 171.915C258.19 169.898 257.551 167.927 256.332 166.366C255.113 164.804 253.397 163.758 251.5 163.422L245.376 162.328C242.826 165.302 239.654 167.617 236.109 169.092C232.564 170.567 228.741 171.161 224.941 170.829C222.646 170.634 220.158 169.985 219.472 166.922C219.286 166.087 219.286 165.218 219.472 164.383C219.915 162.644 220.789 161.059 222.005 159.788L218.236 159.46C213.378 163.289 203.47 179.627 202.211 188.769C201.577 193.356 204.796 195.919 207.023 197.552C207.191 200.222 207.167 202.902 206.949 205.569C210.219 207.913 214.116 209.218 218.012 210.093C230.684 212.961 238.514 213.312 250.717 208.819Z" fill="black"/>
<path d="M204.475 154.506L188.652 187.066C188.204 187.991 187.945 189.004 187.892 190.04C187.839 191.076 187.993 192.112 188.344 193.082C188.694 194.052 189.234 194.935 189.928 195.674C190.623 196.412 191.457 196.991 192.377 197.372C193.285 197.752 194.257 197.93 195.234 197.897C196.211 197.864 197.17 197.62 198.053 197.18C198.936 196.74 199.722 196.113 200.363 195.34C201.004 194.566 201.486 193.662 201.779 192.684L212.119 157.725L204.475 154.506Z" fill="#FFA8A7"/>
<path d="M203.261 158.038C199.261 153.17 197.927 147.747 198.21 141.41C198.236 140.853 198.46 140.327 198.836 139.933C199.483 139.244 200.239 138.678 201.071 138.261C201.352 138.115 201.661 138.036 201.975 138.031C202.289 138.025 202.6 138.094 202.886 138.231C203.172 138.368 203.424 138.57 203.626 138.823C203.828 139.075 203.973 139.372 204.051 139.691C204.48 141.438 205.028 143.151 205.69 144.817C205.321 142.686 205.238 140.51 205.444 138.355C205.476 137.961 205.656 137.597 205.944 137.343C206.231 137.088 206.603 136.963 206.979 136.995C207.345 137.027 207.684 137.209 207.922 137.502C208.161 137.795 208.279 138.174 208.253 138.558C208.073 141.822 208.718 145.078 210.123 147.997C209.996 146.341 210.123 145.075 210.123 143.598C210.124 143.413 210.164 143.23 210.237 143.061C210.311 142.893 210.418 142.742 210.551 142.62C210.684 142.498 210.839 142.406 211.008 142.351C211.177 142.296 211.355 142.279 211.531 142.301C211.797 142.333 212.047 142.453 212.244 142.644C212.441 142.835 212.575 143.087 212.626 143.364C212.939 145.153 213.147 146.95 213.497 148.732C213.989 151.193 214.458 153.818 213.572 156.155C213.237 157.026 212.726 157.812 212.074 158.456C211.422 159.101 210.644 159.59 209.795 159.89C208.126 160.499 204.431 159.46 203.261 158.038Z" fill="#FFA8A7"/>
<path opacity="0.2" d="M210.123 147.997C209.509 148.482 208.999 149.095 208.625 149.799C208.251 150.503 208.022 151.28 207.952 152.083C207.881 152.885 207.972 153.693 208.218 154.457C208.463 155.22 208.858 155.921 209.378 156.514C208.201 155.99 207.249 155.03 206.703 153.818C206.432 153.205 206.296 152.535 206.305 151.859C206.314 151.183 206.468 150.517 206.755 149.912C207.113 149.317 207.611 148.829 208.201 148.493C208.79 148.158 209.452 147.987 210.123 147.997Z" fill="black"/>
<path opacity="0.2" d="M237.308 192.09C234.94 195.109 231.658 197.187 228.008 197.979C224.358 198.77 220.56 198.228 217.245 196.442C218.58 198.053 220.28 199.285 222.189 200.026C224.098 200.766 226.153 200.99 228.166 200.677C232.145 199.951 235.818 196.036 237.308 192.09Z" fill="black"/>
<path d="M251.507 163.421C247.827 168.172 240.682 180.08 235.676 188.636L234.976 170.563C237.422 169.918 239.685 168.668 241.577 166.917C243.468 165.166 244.931 162.965 245.845 160.499C246.68 158.155 246.985 155.537 245.704 153.342C245.192 152.443 244.404 151.754 243.469 151.388C241.152 150.537 239.319 152.107 238.12 153.881C237.336 155.259 236.483 156.591 235.564 157.874C234.015 159.718 231.802 160.749 229.85 162.117C227.898 163.484 226.125 165.375 226.125 167.828L222.72 205.96C222.561 207.794 222.946 209.636 223.824 211.232C224.702 212.828 226.028 214.101 227.623 214.875C229.342 215.702 231.274 215.905 233.116 215.452C234.957 214.999 236.602 213.917 237.792 212.375C243.007 205.624 251.701 194.153 255.798 187.777C261.892 178.354 265.401 165.602 251.507 163.421Z" fill="#FFA8A7"/>
<path opacity="0.2" d="M235.676 188.629L227.272 202.897C227.801 188.527 235.616 187.168 235.616 187.168L235.676 188.629Z" fill="black"/>
<path opacity="0.2" d="M227.913 166.141C229.113 164.578 231.184 164.179 232.957 163.414C235.407 162.329 237.431 160.399 238.693 157.944C239.252 156.834 239.654 155.647 240.183 154.537C240.696 153.398 241.527 152.449 242.567 151.818C242.921 151.637 243.301 151.52 243.692 151.474C243.601 151.424 243.506 151.379 243.409 151.341C241.092 150.49 239.259 152.06 238.06 153.834C237.277 155.212 236.424 156.545 235.505 157.827C233.955 159.671 231.742 160.702 229.79 162.07C227.839 163.437 226.065 165.328 226.065 167.782L225.224 177.244C225.789 174.957 226.244 172.641 226.587 170.305C226.833 168.86 227.034 167.305 227.913 166.141Z" fill="white"/>
<path d="M143.952 47.5357C143.386 45.4572 139.355 41.5034 135.347 41.5816C134.963 41.5955 134.583 41.6746 134.222 41.816L56.3999 88.2532C55.2698 88.9457 54.3316 89.9357 53.6783 91.1253C53.0249 92.3148 52.6791 93.6627 52.6749 95.0355V271.626C52.6749 276.127 57.6217 280.417 62.263 278.354C62.3648 278.319 62.4644 278.277 62.561 278.229L140.398 231.706C141.54 231.024 142.489 230.037 143.15 228.846C143.811 227.655 144.159 226.302 144.161 224.924V48.3874C144.156 48.0902 144.085 47.7983 143.952 47.5357Z" fill="#455A64"/>
<path d="M63.4923 113.703C63.4933 113.013 63.6681 112.336 63.9992 111.741C64.3302 111.145 64.8056 110.652 65.3772 110.311L137.642 67.1873C137.925 67.0176 138.246 66.9289 138.572 66.93C138.898 66.9312 139.218 67.0222 139.5 67.1938C139.782 67.3655 140.017 67.6119 140.179 67.9083C140.342 68.2047 140.428 68.5408 140.428 68.8828V211.289C140.428 211.979 140.254 212.658 139.923 213.255C139.592 213.852 139.116 214.346 138.543 214.688L66.2786 257.882C65.9945 258.05 65.6736 258.136 65.3477 258.134C65.0217 258.131 64.7021 258.039 64.4206 257.867C64.139 257.695 63.9052 257.448 63.7424 257.152C63.5795 256.856 63.4933 256.52 63.4923 256.179V113.703Z" fill="#FF7F50"/>
<path opacity="0.2" d="M63.4923 113.703C63.4933 113.013 63.6681 112.336 63.9992 111.741C64.3302 111.145 64.8056 110.652 65.3772 110.311L137.642 67.1873C137.925 67.0176 138.246 66.9289 138.572 66.93C138.898 66.9312 139.218 67.0222 139.5 67.1938C139.782 67.3655 140.017 67.6119 140.179 67.9083C140.342 68.2047 140.428 68.5408 140.428 68.8828V211.289C140.428 211.979 140.254 212.658 139.923 213.255C139.592 213.852 139.116 214.346 138.543 214.688L66.2786 257.882C65.9945 258.049 65.6736 258.136 65.3477 258.134C65.0217 258.131 64.7021 258.039 64.4206 257.867C64.139 257.695 63.9052 257.448 63.7424 257.152C63.5795 256.856 63.4933 256.52 63.4923 256.179V113.703Z" fill="black"/>
<path opacity="0.3" d="M52.6377 95.0355V271.626C52.6377 276.127 57.5845 280.417 62.2258 278.354C61.946 278.459 61.6463 278.492 61.3518 278.451C61.0573 278.409 60.7766 278.294 60.5335 278.114C60.2903 277.935 60.0918 277.697 59.9545 277.421C59.8173 277.144 59.7454 276.837 59.745 276.526V99.9347C59.749 98.3993 60.1844 96.8991 60.9966 95.6215L53.3752 91.6287C52.8891 92.692 52.637 93.8563 52.6377 95.0355Z" fill="black"/>
<path opacity="0.1" d="M135.355 41.5738C134.97 41.5877 134.59 41.6668 134.23 41.8082L56.3999 88.2532C55.1084 89.0351 54.0703 90.2055 53.42 91.6131L61.0264 95.645C61.6671 94.6248 62.527 93.7765 63.537 93.168L141.367 46.684C141.588 46.554 141.833 46.4729 142.085 46.4455C142.337 46.4182 142.592 46.4452 142.835 46.525C143.077 46.6047 143.301 46.7355 143.493 46.9093C143.685 47.0831 143.841 47.2963 143.952 47.5357C143.393 45.4494 139.363 41.4956 135.355 41.5738Z" fill="white"/>
<path d="M111.552 75.8449C112.103 75.5167 112.55 75.7746 112.558 76.431C112.536 76.7922 112.434 77.1432 112.261 77.4564C112.087 77.7695 111.847 78.0364 111.559 78.2359L96.2871 87.4874C95.7432 87.8156 95.3037 87.5343 95.2962 86.8779C95.315 86.5208 95.4138 86.1733 95.5847 85.8638C95.7555 85.5542 95.9936 85.2913 96.2796 85.0964L111.552 75.8449Z" fill="#263238"/>
<path d="M92.3609 87.4718C92.9047 87.1358 93.3517 87.4014 93.3517 88.0578C93.3312 88.4177 93.2318 88.7678 93.0612 89.0809C92.8907 89.3939 92.6536 89.6615 92.3683 89.8628C92.2716 89.9472 92.1525 89.9985 92.0272 90.0101C91.9018 90.0216 91.7761 89.9928 91.6668 89.9274C91.5574 89.862 91.4698 89.7631 91.4154 89.6441C91.3611 89.5251 91.3426 89.3914 91.3626 89.2611C91.3836 88.9017 91.4849 88.5524 91.6583 88.2416C91.8318 87.9308 92.0724 87.6671 92.3609 87.4718Z" fill="#263238"/>
<path d="M102.135 74.501C103.23 73.8368 104.11 74.3681 104.11 75.6808C104.076 76.4006 103.881 77.102 103.541 77.7279C103.201 78.3538 102.724 78.8866 102.15 79.283C101.055 79.9393 100.154 79.4002 100.146 78.0875C100.186 77.3678 100.386 76.668 100.732 76.0448C101.078 75.4217 101.558 74.8928 102.135 74.501Z" fill="#263238"/>
<path d="M102.143 240.739C104.378 239.387 106.158 240.465 106.166 243.145C106.096 244.61 105.697 246.037 105.002 247.309C104.307 248.581 103.335 249.663 102.165 250.467C99.9301 251.819 98.0974 250.717 98.09 248.029C98.17 246.565 98.5789 245.141 99.2832 243.874C99.9875 242.607 100.967 241.533 102.143 240.739Z" fill="#263238"/>
<path d="M127.048 217.415L79.3682 218.071C79.3682 218.071 78.4146 230.073 77.826 250.951L127.339 221.361C127.175 218.876 127.048 217.415 127.048 217.415Z" fill="#FF7F50"/>
<path opacity="0.5" d="M127.048 217.415L79.3682 218.071C79.3682 218.071 78.4146 230.073 77.826 250.951L127.339 221.361C127.175 218.876 127.048 217.415 127.048 217.415Z" fill="black"/>
<path d="M183.489 149.708L163.292 182.893C162.636 183.97 161.77 184.89 160.751 185.592C159.733 186.294 158.585 186.763 157.382 186.968C156.179 187.173 154.948 187.11 153.77 186.782C152.592 186.454 151.493 185.869 150.545 185.066L141.605 177.463L150.143 163.851L155.604 168.977L170.72 151.982C172.21 150.333 173.387 148.779 173.886 146.583L183.489 149.708Z" fill="#875554"/>
<path d="M123.934 142.528C131.384 142.082 133.291 146.153 137.985 150.732C142.678 155.311 151.491 164.226 151.491 164.226C151.152 167.311 150.077 170.257 148.366 172.791C146.655 175.326 144.363 177.368 141.702 178.729L125.364 166.086L123.934 142.528Z" fill="#455A64"/>
<path d="M155.574 168.977C153.994 173.009 155.261 178.354 155.261 178.354C154.232 176.77 153.575 174.952 153.345 173.051C153.114 171.15 153.317 169.218 153.935 167.414L155.574 168.977Z" fill="#753F3F"/>
<path opacity="0.2" d="M132.568 161.499C131.593 156.071 128.613 151.266 124.277 148.13L125.364 166.102L132.814 171.876C132.859 168.399 133.127 164.914 132.568 161.499Z" fill="black"/>
<path d="M132.136 117.844C134.11 115.82 135.429 113.198 135.907 110.347C136.386 107.496 136 104.56 134.803 101.951C135.766 100.929 136.509 99.7031 136.983 98.3555C137.457 97.0079 137.652 95.5696 137.552 94.1369C137.405 92.7156 136.966 91.3447 136.265 90.1185C135.564 88.8923 134.618 87.8401 133.492 87.0342C133.902 89.0033 132.546 91.4881 130.84 92.4257C129.075 93.2559 127.118 93.5274 125.208 93.2071C122.168 92.8867 119.248 91.996 116.216 91.449C113.184 90.902 110.047 90.7223 107.171 91.785C104.296 92.8476 101.755 95.3793 101.331 98.5517C98.6114 97.6922 95.0355 100.021 93.8286 102.716C92.6217 105.412 92.9048 108.6 93.7541 111.444C94.6034 114.289 95.9891 116.914 97.0023 119.696C98.0155 122.477 98.6487 125.548 97.9186 128.432C97.5252 129.585 97.1969 130.762 96.9352 131.956C96.8161 132.558 96.8604 133.183 97.0632 133.761C97.266 134.338 97.6192 134.844 98.0825 135.222C98.2687 134.44 98.604 133.659 98.7903 132.878C98.9282 133.485 99.1358 134.073 99.4086 134.628C99.6668 135.183 100.117 135.613 100.668 135.831C100.944 135.93 101.243 135.936 101.523 135.849C101.803 135.762 102.051 135.587 102.232 135.347C102.454 136.436 102.918 137.455 103.586 138.321C104.254 139.187 105.107 139.876 106.076 140.332C107.067 140.781 108.143 140.984 109.22 140.925C110.298 140.867 111.348 140.549 112.29 139.996C113.881 138.962 115.127 137.436 115.858 135.628C116.585 133.832 117.103 131.951 117.4 130.026C122.76 126.599 127.707 122.509 132.136 117.844Z" fill="#263238"/>
<path d="M78.1464 221.056C78.1464 221.056 105.808 231.667 128.27 218.438C128.27 218.438 126.906 201.553 126.497 191.715C126.087 181.878 129.328 162.875 129.819 157.78C130.311 152.685 129.655 143.871 123.934 142.535C113.318 140.191 93.389 142.535 93.389 142.535L81.4691 156.342C76.4403 183.315 77.2971 211.64 78.1464 221.056Z" fill="#455A64"/>
<path d="M118.473 134.393L117.885 141.293C117.85 141.842 117.98 142.388 118.257 142.856C118.621 143.577 118.761 144.399 118.657 145.208C118.552 146.016 118.21 146.77 117.676 147.364C116.827 148.035 115.796 148.402 114.733 148.411C112.727 148.526 110.72 148.193 108.845 147.434C106.97 146.676 105.27 145.51 103.856 144.012C103.572 143.7 103.35 143.333 103.203 142.93C103.056 142.528 102.987 142.099 102.999 141.668L103.432 124.157L118.473 134.393Z" fill="#875554"/>
<path d="M104.758 125.009L118.473 134.386L117.952 140.504C114.763 139.722 111.552 138.761 109.012 136.597C107.424 135.202 106.201 133.406 105.457 131.379C104.713 129.352 104.472 127.16 104.758 125.009Z" fill="#753F3F"/>
<path d="M133.425 106.264C134.431 114.272 133.925 122.41 131.935 130.213C131.554 131.932 130.945 133.587 130.125 135.128C129.288 136.683 127.976 137.897 126.4 138.574C124.463 139.355 122.317 138.972 120.276 138.574C116.551 137.886 112.729 137.159 109.496 135.112C106.263 133.065 103.7 129.346 104.013 125.392C103.091 125.988 102.042 126.334 100.961 126.396C99.8795 126.459 98.8005 126.237 97.8218 125.751C96.8704 125.204 96.0631 124.418 95.4716 123.463C94.8802 122.509 94.523 121.416 94.432 120.282C94.2905 118.07 95.5123 115.593 97.5834 115.164C98.2251 115.068 98.8789 115.117 99.5009 115.309C100.123 115.5 100.699 115.829 101.189 116.273C102.162 117.166 103.007 118.2 103.7 119.344C104.018 119.9 104.445 120.379 104.951 120.751C105.204 120.939 105.506 121.04 105.816 121.04C106.125 121.04 106.427 120.939 106.68 120.751C106.898 120.482 107.055 120.166 107.14 119.825C107.225 119.484 107.236 119.127 107.171 118.782L106.955 113.765C106.942 113.381 107.035 113.001 107.222 112.671C107.41 112.341 107.685 112.075 108.013 111.905C108.999 111.34 109.757 110.422 110.151 109.319C110.501 108.352 110.707 107.335 110.762 106.303C110.776 106.11 110.832 105.922 110.928 105.757C111.024 105.591 111.155 105.451 111.312 105.349C111.469 105.247 111.647 105.185 111.831 105.169C112.015 105.153 112.201 105.183 112.372 105.256C118.853 107.928 126.817 108.053 133.425 106.264Z" fill="#875554"/>
<path d="M122.921 118.422L127.219 126.001L122.094 127.017L122.921 118.422Z" fill="#753F3F"/>
<path d="M117.154 129.627L121.088 131.588C120.754 132.059 120.28 132.401 119.741 132.561C119.202 132.721 118.628 132.689 118.108 132.471C117.139 132.041 116.871 130.69 117.154 129.627Z" fill="#F28F8F"/>
<path d="M117.154 129.627L121.088 131.588C120.754 132.059 120.28 132.401 119.741 132.561C119.202 132.721 118.628 132.689 118.108 132.471C117.139 132.041 116.871 130.69 117.154 129.627Z" fill="#753F3F"/>
<path d="M119.449 132.627C118.997 132.724 118.528 132.677 118.101 132.495C117.744 132.285 117.454 131.968 117.269 131.586C117.083 131.204 117.01 130.772 117.058 130.346C117.659 130.332 118.243 130.561 118.688 130.986C119.133 131.41 119.405 131.998 119.449 132.627Z" fill="#F28F8F"/>
<path d="M115.501 118.719C115.466 119.028 115.52 119.341 115.656 119.617C115.792 119.894 116.004 120.121 116.264 120.271C116.524 120.42 116.82 120.485 117.116 120.457C117.411 120.429 117.692 120.309 117.922 120.112C118.152 119.916 118.32 119.652 118.406 119.354C118.492 119.056 118.492 118.738 118.405 118.441C118.317 118.144 118.148 117.881 117.917 117.685C117.686 117.49 117.405 117.371 117.11 117.344C116.724 117.308 116.34 117.432 116.039 117.689C115.739 117.946 115.546 118.315 115.501 118.719Z" fill="#263238"/>
<path d="M127.838 119.524C127.805 119.833 127.86 120.145 127.997 120.42C128.134 120.696 128.346 120.922 128.607 121.071C128.867 121.219 129.164 121.283 129.459 121.254C129.754 121.224 130.034 121.103 130.263 120.906C130.492 120.709 130.66 120.445 130.745 120.148C130.831 119.85 130.829 119.533 130.742 119.236C130.654 118.939 130.484 118.676 130.254 118.481C130.023 118.286 129.742 118.168 129.447 118.141C129.06 118.106 128.675 118.231 128.374 118.489C128.073 118.747 127.881 119.119 127.838 119.524Z" fill="#263238"/>
<path d="M129.849 113.562L132.866 116.258C133.05 115.851 133.11 115.396 133.038 114.953C132.966 114.509 132.766 114.1 132.464 113.781C132.091 113.493 131.648 113.321 131.186 113.282C130.724 113.243 130.261 113.34 129.849 113.562Z" fill="#263238"/>
<path d="M117.363 112.054L113.891 114.062C113.788 113.625 113.816 113.166 113.971 112.747C114.125 112.327 114.399 111.968 114.756 111.718C115.177 111.513 115.644 111.436 116.105 111.496C116.566 111.555 117.002 111.748 117.363 112.054Z" fill="#263238"/>
<path d="M186.961 135.737L184.971 129.4L185.098 126.228C182.863 127.158 181.47 128.635 179.399 132.174C177.328 135.714 181.187 136.863 181.187 136.863C183.422 141.277 182.185 146.903 180.136 148.95L183.489 149.732C186.104 148.591 186.543 146.989 187.631 145.27C188.647 143.692 189.535 142.027 190.283 140.293L186.961 135.737Z" fill="#753F3F"/>
<path d="M181.187 136.831C181.768 134.992 182.285 133.143 182.736 131.284C182.962 130.711 182.962 130.067 182.736 129.494C182.334 128.713 181.246 128.392 180.352 128.158L176.531 135.659C174.495 139.2 173.565 143.32 173.871 147.442L180.151 148.919C182.178 146.872 183.422 141.246 181.187 136.831Z" fill="#875554"/>
<path d="M189.062 159.335L187.959 154.826L188.361 154.608L187.87 154.459L186.908 150.552L187.423 149.771L186.745 149.935L184.577 141.059C183.765 137.753 182.93 134.339 182.424 130.901C182.23 129.533 182.081 128.15 181.969 126.767L182.222 126.556H181.954C181.857 125.283 181.79 124.009 181.746 122.727L182.073 122.516L181.738 122.446C181.664 120.102 181.649 117.797 181.641 115.508H180.777C180.777 117.07 180.777 118.633 180.814 120.196L180.308 120.243L180.829 120.68C180.829 121.923 180.889 123.165 180.956 124.407L180.636 124.493L180.971 124.689C181.083 126.822 181.261 128.947 181.567 131.057C182.073 134.534 182.923 137.972 183.735 141.293L186.417 152.232L186.119 152.388L186.484 152.506L187.527 156.764L186.946 157.296H187.691L189.181 163.281C189.437 161.974 189.396 160.622 189.062 159.335Z" fill="#455A64"/>
<path d="M182.178 116.156C180.446 115.381 178.561 115.059 176.685 115.217C174.808 115.375 172.997 116.008 171.405 117.062C173.223 118 174.936 119.157 176.955 119.157C177.983 119.093 178.985 118.791 179.888 118.272C180.791 117.753 181.573 117.03 182.178 116.156Z" fill="#455A64"/>
<path d="M180.107 116.39C183.479 114.795 187.302 114.603 190.805 115.851C189.42 117.386 187.583 118.388 185.59 118.696C183.668 118.992 181.194 118.141 180.107 116.39Z" fill="#455A64"/>
<path d="M181.671 102.951C181.53 102.013 180.732 101.388 180.002 100.802C179.177 100.305 178.558 99.5024 178.266 98.5517C177.536 99.2803 176.963 100.166 176.587 101.147C176.212 102.129 176.043 103.184 176.091 104.24C176.432 104.723 176.899 105.093 177.435 105.305C177.972 105.517 178.555 105.563 179.116 105.436C180.285 105.209 181.85 104.178 181.671 102.951Z" fill="#BA68C8"/>
<path opacity="0.3" d="M181.671 102.951C181.53 102.013 180.732 101.388 180.002 100.802C179.177 100.305 178.558 99.5024 178.266 98.5517C177.536 99.2803 176.963 100.166 176.587 101.147C176.212 102.129 176.043 103.184 176.091 104.24C176.432 104.723 176.899 105.093 177.435 105.305C177.972 105.517 178.555 105.563 179.116 105.436C180.285 105.209 181.85 104.178 181.671 102.951Z" fill="black"/>
<path d="M185.478 102.677C185.199 100.98 185.094 99.2565 185.165 97.5359C181.995 99.4873 179.648 102.625 178.594 106.319C179.391 106.826 180.189 107.256 180.986 107.764C182.401 106.053 184.063 104.459 185.478 102.677Z" fill="#FF7F50"/>
<path opacity="0.2" d="M185.478 102.677C185.199 100.98 185.094 99.2565 185.165 97.5359C181.995 99.4873 179.648 102.625 178.594 106.319C179.391 106.826 180.189 107.256 180.986 107.764C182.401 106.053 184.063 104.459 185.478 102.677Z" fill="black"/>
<path d="M175.078 109.335C175.205 110.96 174.996 112.671 175.667 114.148C176.15 115.143 176.937 115.941 177.901 116.414C178.865 116.88 179.91 117.13 180.971 117.148C181.61 117.229 182.259 117.167 182.874 116.967C183.489 116.766 184.057 116.431 184.539 115.984C185.111 115.29 185.42 114.401 185.411 113.484C185.392 112.573 185.21 111.675 184.875 110.835C183.899 108.213 182.177 105.97 179.943 104.412C178.356 103.305 176.554 102.582 174.668 102.294C173.923 102.185 173.312 102.373 173.223 103.24C173.134 104.107 173.834 104.967 174.176 105.756C174.675 106.884 174.98 108.095 175.078 109.335Z" fill="#FF7F50"/>
<path opacity="0.1" d="M175.078 109.335C175.205 110.96 174.996 112.671 175.667 114.148C176.15 115.143 176.937 115.941 177.901 116.414C178.865 116.88 179.91 117.13 180.971 117.148C181.61 117.229 182.259 117.167 182.874 116.967C183.489 116.766 184.057 116.431 184.539 115.984C185.111 115.29 185.42 114.401 185.411 113.484C185.392 112.573 185.21 111.675 184.875 110.835C183.899 108.213 182.177 105.97 179.943 104.412C178.356 103.305 176.554 102.582 174.668 102.294C173.923 102.185 173.312 102.373 173.223 103.24C173.134 104.107 173.834 104.967 174.176 105.756C174.675 106.884 174.98 108.095 175.078 109.335Z" fill="black"/>
<path d="M187.869 100.099C188.205 99.9894 188.614 99.9191 188.845 100.216C189.076 100.513 186.998 103.256 187.84 105.623C188.321 106.992 188.573 108.438 188.585 109.897C188.587 110.915 188.365 111.92 187.934 112.833C187.504 113.745 186.877 114.54 186.104 115.156C185.405 115.741 184.552 116.088 183.66 116.148C182.9 116.131 182.158 115.901 181.511 115.482C180.864 115.063 180.335 114.47 179.98 113.765C179.396 112.505 179.127 111.109 179.198 109.71C179.195 108.681 179.482 107.675 180.025 106.819C181.113 104.791 182.645 103.064 184.495 101.779C185.538 101.054 186.674 100.489 187.869 100.099Z" fill="#FF7F50"/>
<path opacity="0.05" d="M187.869 100.099C188.205 99.9894 188.614 99.9191 188.845 100.216C189.076 100.513 186.998 103.256 187.84 105.623C188.321 106.992 188.573 108.438 188.585 109.897C188.587 110.915 188.365 111.92 187.934 112.833C187.504 113.745 186.877 114.54 186.104 115.156C185.405 115.741 184.552 116.088 183.66 116.148C182.9 116.131 182.158 115.901 181.511 115.482C180.864 115.063 180.335 114.47 179.98 113.765C179.396 112.505 179.127 111.109 179.198 109.71C179.195 108.681 179.482 107.675 180.025 106.819C181.113 104.791 182.645 103.064 184.495 101.779C185.538 101.054 186.674 100.489 187.869 100.099Z" fill="black"/>
<path d="M180.963 117.148C182.61 116.523 185.337 108.905 190.283 108.366C190.159 110.07 189.769 111.74 189.129 113.312C188.452 114.824 187.285 116.035 185.836 116.726C184.303 117.438 182.586 117.587 180.963 117.148Z" fill="#FF7F50"/>
<path d="M180.963 117.148C173.804 118.102 173.864 110.288 172.366 108.811C176.16 110.306 179.246 113.299 180.963 117.148Z" fill="#FF7F50"/>
<path d="M186.476 141.246C186.155 141.599 185.877 141.993 185.649 142.418C185.54 142.621 185.475 142.847 185.46 143.079C185.444 143.312 185.478 143.545 185.56 143.762C185.673 143.996 185.845 144.194 186.058 144.331C186.271 144.469 186.517 144.543 186.767 144.543C187.348 144.47 187.88 144.169 188.257 143.7C189.145 142.883 189.956 141.977 190.678 140.996C190.935 140.683 191.09 140.291 191.118 139.879C191.118 138.847 189.739 138.417 188.741 138.793C188.371 138.979 188.055 139.264 187.825 139.621L186.476 141.246Z" fill="#875554"/>
<path d="M184.688 137.691C184.281 138.126 183.932 138.617 183.653 139.152C183.519 139.404 183.441 139.684 183.423 139.972C183.405 140.26 183.448 140.548 183.549 140.816C183.686 141.108 183.899 141.353 184.162 141.526C184.425 141.698 184.728 141.791 185.039 141.793C185.774 141.704 186.451 141.33 186.938 140.746C188.031 139.722 189.029 138.592 189.918 137.37C190.236 136.982 190.429 136.498 190.47 135.987C190.47 134.706 188.749 134.167 187.49 134.628C187.027 134.862 186.631 135.221 186.342 135.667L184.688 137.691Z" fill="#875554"/>
<path d="M184.293 133.596C183.878 134.044 183.522 134.549 183.236 135.097C183.096 135.356 183.013 135.645 182.993 135.943C182.974 136.24 183.019 136.539 183.124 136.816C183.266 137.117 183.486 137.37 183.758 137.547C184.031 137.724 184.345 137.817 184.666 137.816C185.424 137.732 186.123 137.346 186.618 136.738C187.755 135.689 188.793 134.527 189.717 133.268C190.046 132.867 190.245 132.366 190.283 131.838C190.283 130.518 188.51 129.971 187.229 130.44C186.757 130.687 186.352 131.055 186.052 131.51L184.293 133.596Z" fill="#875554"/>
<path d="M182.833 129.635C182.519 130.118 182.268 130.644 182.088 131.198C182.003 131.473 181.976 131.765 182.009 132.052C182.043 132.34 182.136 132.616 182.282 132.862C182.467 133.136 182.719 133.352 183.011 133.49C183.303 133.627 183.625 133.68 183.943 133.643C184.291 133.558 184.62 133.401 184.909 133.181C185.198 132.961 185.442 132.683 185.627 132.362C186.534 131.206 187.328 129.957 187.996 128.635C188.24 128.199 188.34 127.691 188.279 127.189C188.018 125.931 186.253 125.626 185.106 126.236C184.694 126.53 184.369 126.938 184.167 127.416C183.72 128.15 183.28 128.892 182.833 129.635Z" fill="#875554"/>
<path opacity="0.2" d="M128.225 217.868L114.182 196.583L93.985 162.523L84.68 152.599L81.4542 156.342C80.9401 159.108 80.4857 161.89 80.0908 164.656L81.5436 165.609C83.7115 183.222 95.9741 212.234 95.9741 212.234C101.934 216.993 109.667 220.759 116.089 223.384C120.344 222.329 124.44 220.664 128.262 218.438C128.262 218.438 128.255 218.227 128.225 217.868Z" fill="black"/>
<path d="M106.724 178.736L114.174 196.583L137.925 217.086C139.161 218.155 140.727 218.711 142.328 218.649C144.092 218.527 145.864 218.634 147.602 218.969C148.958 219.29 150.277 219.751 151.625 220.087C152.574 220.332 153.547 220.458 154.523 220.462C154.722 220.452 154.92 220.496 155.098 220.589C155.277 220.682 155.429 220.821 155.542 220.993C155.655 221.165 155.723 221.365 155.742 221.573C155.761 221.78 155.728 221.99 155.648 222.181C155.498 222.476 155.299 222.741 155.06 222.962C154.337 223.555 153.464 223.914 152.549 223.994C151.113 224.202 149.651 224.122 148.243 223.759C149.487 225.463 151.611 226.541 153.555 227.221C155.499 227.901 157.533 228.291 159.463 229.002C160.205 229.214 160.868 229.658 161.363 230.276C161.588 230.596 161.689 230.993 161.645 231.388C161.6 231.783 161.414 232.145 161.124 232.401C160.29 232.933 159.165 232.143 158.256 232.519C158.369 233.064 158.369 233.629 158.256 234.175C158.105 234.736 157.759 235.218 157.287 235.527C157.054 235.679 156.787 235.765 156.512 235.774C156.237 235.784 155.965 235.717 155.723 235.582C155.307 236.247 154.77 236.818 154.142 237.264C153.514 237.709 152.808 238.019 152.065 238.176C150.586 238.473 149.065 238.452 147.595 238.113C141.441 236.925 137.545 231.3 132.695 227.119C132.002 226.525 113.325 215.735 104.884 210.874C102.237 209.343 100.118 206.975 98.8275 204.108L89.7311 183.94L106.724 178.736Z" fill="#875554"/>
<path d="M93.3592 142.528C101.346 152.435 104.34 169.438 108.468 180.385C103.856 189.551 90.9976 188.629 90.9976 188.629C79.2266 162.96 74.25 143.575 93.3592 142.528Z" fill="#455A64"/>
</svg>
